<?xml version="1.0" standalone="no"?><svg xmlns="http://www.w3.org/2000/svg" viewBox="0 0 1440 320"><path fill="#612BFE" fill-opacity="1" d="M0,320L34.3,309.3C68.6,299,137,277,206,266.7C274.3,256,343,256,411,240C480,224,549,192,617,165.3C685.7,139,754,117,823,133.3C891.4,149,960,203,1029,202.7C1097.1,203,1166,149,1234,117.3C1302.9,85,1371,75,1406,69.3L1440,64L1440,320L1405.7,320C1371.4,320,1303,320,1234,320C1165.7,320,1097,320,1029,320C960,320,891,320,823,320C754.3,320,686,320,617,320C548.6,320,480,320,411,320C342.9,320,274,320,206,320C137.1,320,69,320,34,320L0,320Z"></path></svg>